<?xml version="1.0" encoding="UTF-8"?>
<!DOCTYPE svg PUBLIC "-//W3C//DTD SVG 1.1//EN" "http://www.w3.org/Graphics/SVG/1.1/DTD/svg11.dtd">
<svg xmlns="http://www.w3.org/2000/svg" version="1.1" width="810px" height="519px" style="shape-rendering:geometricPrecision; text-rendering:geometricPrecision; image-rendering:optimizeQuality; fill-rule:evenodd; clip-rule:evenodd" xmlns:xlink="http://www.w3.org/1999/xlink">
<g><path style="opacity:0.89" fill="#000000" d="M 688.5,42.5 C 691.572,42.1826 694.572,42.5159 697.5,43.5C 697.663,48.0282 699.329,51.8615 702.5,55C 711.287,55.7104 715.287,51.5437 714.5,42.5C 717.833,42.5 721.167,42.5 724.5,42.5C 725.103,61.0782 716.436,68.5782 698.5,65C 692.709,61.9261 689.543,57.0928 689,50.5C 688.503,47.854 688.336,45.1873 688.5,42.5 Z"/></g>
<g><path style="opacity:0.728" fill="#4c4d4d" d="M 143.5,45.5 C 187.546,47.087 218.046,68.087 235,108.5C 236.735,114.274 238.235,120.107 239.5,126C 241.627,127.902 243.96,129.569 246.5,131C 213.168,131.5 179.835,131.667 146.5,131.5C 146.5,132.5 146.5,133.5 146.5,134.5C 138.682,136.46 137.682,140.293 143.5,146C 177.5,146.333 211.5,146.667 245.5,147C 243.833,148.167 242.167,149.333 240.5,150.5C 232.566,196.933 205.566,224.766 159.5,234C 118.332,237.996 86.4983,222.829 64,188.5C 46.4962,154.263 47.4962,120.597 67,87.5C 85.9881,61.5902 111.488,47.5902 143.5,45.5 Z M 139.5,48.5 C 182.391,48.517 212.891,67.8504 231,106.5C 233.619,113.308 235.452,120.308 236.5,127.5C 206.167,127.5 175.833,127.5 145.5,127.5C 145.5,128.833 145.5,130.167 145.5,131.5C 137.643,133.214 135.143,137.881 138,145.5C 140.079,147.79 142.579,149.457 145.5,150.5C 175.826,151.5 206.159,151.833 236.5,151.5C 229.491,192.678 205.825,218.845 165.5,230C 123.488,236.737 90.655,222.57 67,187.5C 52.7161,161.08 50.7161,133.746 61,105.5C 76.6768,71.9817 102.844,52.9817 139.5,48.5 Z M 134.5,58.5 C 178.086,56.2815 208.086,75.2815 224.5,115.5C 222.257,116.474 219.924,116.808 217.5,116.5C 209.755,92.2544 193.755,76.0878 169.5,68C 131.755,58.4657 101.922,69.6324 80,101.5C 62.2901,138.011 67.7901,170.511 96.5,199C 123,218.753 151.334,221.753 181.5,208C 200.227,197.598 212.727,182.098 219,161.5C 221.139,160.231 223.305,160.231 225.5,161.5C 210.536,204.61 180.202,224.777 134.5,222C 100.962,215.796 78.4624,196.629 67,164.5C 57.3865,120.902 71.8865,88.0691 110.5,66C 118.401,62.7526 126.401,60.2526 134.5,58.5 Z M 212.5,169.5 C 201.205,193.946 182.205,208.446 155.5,213C 115.228,215.287 88.395,197.453 75,159.5C 67.7015,119.932 81.8682,91.0988 117.5,73C 150.79,61.2809 179.29,68.4476 203,94.5C 205.958,98.9157 208.792,103.416 211.5,108C 189.669,106.545 167.669,106.045 145.5,106.5C 145.5,108.167 145.5,109.833 145.5,111.5C 123.918,114.584 114.751,126.918 118,148.5C 122.558,161.555 131.725,168.888 145.5,170.5C 166.826,171.666 188.159,171.833 209.5,171C 210.244,169.961 211.244,169.461 212.5,169.5 Z"/></g>
<g><path style="opacity:0.947" fill="#000000" d="M 405.5,48.5 C 415.351,47.5088 421.517,51.8421 424,61.5C 424.5,87.1645 424.667,112.831 424.5,138.5C 421.167,138.5 417.833,138.5 414.5,138.5C 414.667,114.498 414.5,90.4977 414,66.5C 412.777,59.9462 409.777,58.9462 405,63.5C 404.178,66.1168 403.678,68.7835 403.5,71.5C 400.167,71.5 396.833,71.5 393.5,71.5C 393.082,61.3298 397.082,53.6631 405.5,48.5 Z"/></g>
<g><path style="opacity:0.944" fill="#000000" d="M 582.5,48.5 C 593.249,47.7416 599.415,52.7416 601,63.5C 601.5,88.4978 601.667,113.498 601.5,138.5C 598.167,138.5 594.833,138.5 591.5,138.5C 591.931,113.466 591.431,88.466 590,63.5C 588.695,60.6936 586.528,59.8603 583.5,61C 581.071,64.0413 580.071,67.5413 580.5,71.5C 577.167,71.5 573.833,71.5 570.5,71.5C 569.589,60.978 573.589,53.3113 582.5,48.5 Z"/></g>
<g><path style="opacity:0.719" fill="#4c4d4d" d="M 134.5,55.5 C 168.367,52.6902 195.534,64.6902 216,91.5C 221.543,101.084 226.376,110.918 230.5,121C 202.169,121.5 173.835,121.667 145.5,121.5C 145.5,119.833 145.5,118.167 145.5,116.5C 168.5,116.5 191.5,116.5 214.5,116.5C 214.579,115.07 214.246,113.736 213.5,112.5C 191.177,111.5 168.843,111.167 146.5,111.5C 146.5,112.5 146.5,113.5 146.5,114.5C 126.132,116.895 117.632,128.228 121,148.5C 124.36,157.862 130.86,163.695 140.5,166C 165.173,166.833 189.84,166.666 214.5,165.5C 215.074,163.941 215.74,162.441 216.5,161C 192.826,160.833 169.16,160.333 145.5,159.5C 129.815,155.464 124.649,145.798 130,130.5C 134.027,124.397 139.527,122.063 146.5,123.5C 146.333,123.833 146.167,124.167 146,124.5C 131.214,128.193 127.214,136.86 134,150.5C 136.08,152.123 138.246,153.623 140.5,155C 170.466,156.286 200.466,156.952 230.5,157C 216.371,204.125 184.704,226.791 135.5,225C 88.9258,216.037 63.9258,187.87 60.5,140.5C 63.8691,93.4729 88.5358,65.1396 134.5,55.5 Z M 134.5,58.5 C 126.401,60.2526 118.401,62.7526 110.5,66C 71.8865,88.0691 57.3865,120.902 67,164.5C 78.4624,196.629 100.962,215.796 134.5,222C 180.202,224.777 210.536,204.61 225.5,161.5C 223.305,160.231 221.139,160.231 219,161.5C 212.727,182.098 200.227,197.598 181.5,208C 151.334,221.753 123,218.753 96.5,199C 67.7901,170.511 62.2901,138.011 80,101.5C 101.922,69.6324 131.755,58.4657 169.5,68C 193.755,76.0878 209.755,92.2544 217.5,116.5C 219.924,116.808 222.257,116.474 224.5,115.5C 208.086,75.2815 178.086,56.2815 134.5,58.5 Z M 212.5,169.5 C 211.244,169.461 210.244,169.961 209.5,171C 188.159,171.833 166.826,171.666 145.5,170.5C 131.725,168.888 122.558,161.555 118,148.5C 114.751,126.918 123.918,114.584 145.5,111.5C 145.5,109.833 145.5,108.167 145.5,106.5C 167.669,106.045 189.669,106.545 211.5,108C 208.792,103.416 205.958,98.9157 203,94.5C 179.29,68.4476 150.79,61.2809 117.5,73C 81.8682,91.0988 67.7015,119.932 75,159.5C 88.395,197.453 115.228,215.287 155.5,213C 182.205,208.446 201.205,193.946 212.5,169.5 Z"/></g>
<g><path style="opacity:0.679" fill="#4c4d4d" d="M 145.5,68.5 C 147.95,69.7765 150.283,71.2765 152.5,73C 150.527,73.4955 148.527,73.6621 146.5,73.5C 146.5,74.5 146.5,75.5 146.5,76.5C 106.998,79.6682 85.3315,101.002 81.5,140.5C 85.3315,179.998 106.998,201.332 146.5,204.5C 146.5,205.5 146.5,206.5 146.5,207.5C 148.527,207.338 150.527,207.505 152.5,208C 150.336,208.914 148.336,210.081 146.5,211.5C 145.571,210.311 145.238,208.978 145.5,207.5C 110.547,205.378 88.714,187.378 80,153.5C 75.2677,119.462 88.101,94.6286 118.5,79C 127.146,75.4478 136.146,73.6144 145.5,73.5C 145.5,71.8333 145.5,70.1667 145.5,68.5 Z"/></g>
<g><path style="opacity:0.923" fill="#000000" d="M 562.5,71.5 C 565.263,71.7438 567.429,73.0771 569,75.5C 579.43,92.3229 581.097,109.99 574,128.5C 567.395,138.683 558.561,141.183 547.5,136C 545.951,134.786 544.785,133.286 544,131.5C 533.673,141.137 523.673,140.804 514,130.5C 512.601,127.637 511.601,124.637 511,121.5C 510.892,111.774 510.225,102.107 509,92.5C 505.275,84.8171 500.275,83.8171 494,89.5C 488.822,99.8446 488.155,110.511 492,121.5C 493.556,125.876 496.056,129.542 499.5,132.5C 497.146,135.688 494.312,138.355 491,140.5C 479.304,125.127 476.304,108.127 482,89.5C 486.578,75.7955 495.745,70.9621 509.5,75C 515.635,78.7578 519.135,84.2578 520,91.5C 520.104,101.559 520.771,111.559 522,121.5C 524.072,126.143 527.572,127.643 532.5,126C 535.106,124.062 536.939,121.562 538,118.5C 538.5,103.837 538.667,89.1705 538.5,74.5C 541.833,74.5 545.167,74.5 548.5,74.5C 548.101,89.877 548.601,105.21 550,120.5C 553.272,127.307 557.938,128.307 564,123.5C 571.493,107.301 568.993,92.8013 556.5,80C 558.745,77.2691 560.745,74.4358 562.5,71.5 Z"/></g>
<g><path style="opacity:0.91" fill="#000000" d="M 389.5,72.5 C 396.976,79.354 401.143,88.0207 402,98.5C 403.527,110.684 401.193,122.018 395,132.5C 386.843,140.576 377.843,141.576 368,135.5C 365.19,131.547 363.19,127.213 362,122.5C 361.865,112.451 361.198,102.451 360,92.5C 357.786,86.9738 353.952,85.1405 348.5,87C 346.19,88.6374 344.69,90.804 344,93.5C 343.5,108.496 343.333,123.496 343.5,138.5C 339.833,138.5 336.167,138.5 332.5,138.5C 332.667,123.496 332.5,108.496 332,93.5C 328.557,84.5728 323.557,83.5728 317,90.5C 313.21,98.8918 312.543,107.558 315,116.5C 317.561,122.956 320.561,128.956 324,134.5C 321.622,136.709 319.455,139.042 317.5,141.5C 307.76,131.964 303.094,120.297 303.5,106.5C 302.376,92.5798 307.709,82.0798 319.5,75C 327.365,72.7485 333.532,74.9151 338,81.5C 344.489,74.4043 352.322,72.571 361.5,76C 365.456,78.9623 368.289,82.7956 370,87.5C 370.973,98.8428 371.973,110.176 373,121.5C 376.567,128.013 381.234,129.013 387,124.5C 393.24,111.008 392.907,97.6742 386,84.5C 384.315,82.9825 382.815,81.3159 381.5,79.5C 384.239,77.1492 386.905,74.8159 389.5,72.5 Z"/></g>
<g><path style="opacity:0.905" fill="#000000" d="M 630.5,73.5 C 641.817,71.3159 649.984,75.3159 655,85.5C 661.902,101.909 660.569,117.575 651,132.5C 648.651,135.017 646.151,137.35 643.5,139.5C 640.949,137.106 638.949,134.273 637.5,131C 648.899,121.014 652.066,108.847 647,94.5C 642.006,84.2658 635.34,82.9324 627,90.5C 621.846,100.17 621.179,110.17 625,120.5C 627.142,124.471 629.976,127.805 633.5,130.5C 632.087,133.661 630.42,136.661 628.5,139.5C 615.409,129.415 610.242,116.082 613,99.5C 614.414,87.6304 620.248,78.9637 630.5,73.5 Z"/></g>
<g><path style="opacity:0.906" fill="#000000" d="M 687.5,73.5 C 700.075,71.7003 708.575,76.7003 713,88.5C 716.333,100.167 716.333,111.833 713,123.5C 710.132,130.252 705.632,135.585 699.5,139.5C 697.707,136.749 696.041,133.916 694.5,131C 705.403,121.352 708.569,109.519 704,95.5C 698.915,83.8698 691.915,82.5365 683,91.5C 676.324,106.531 678.824,119.697 690.5,131C 689.126,133.583 687.626,136.083 686,138.5C 685.282,139.451 684.449,139.617 683.5,139C 669.633,125.354 665.8,109.188 672,90.5C 674.989,82.6848 680.156,77.0182 687.5,73.5 Z"/></g>
<g><path style="opacity:0.702" fill="#4c4d4d" d="M 145.5,78.5 C 151.176,78.3339 156.843,78.5006 162.5,79C 164.167,80 165.833,81 167.5,82C 160.476,82.1689 153.476,82.6689 146.5,83.5C 121.96,85.8776 104.46,98.211 94,120.5C 85.5644,147.778 92.7311,169.945 115.5,187C 120.599,189.883 125.933,192.217 131.5,194C 143.443,195.688 155.443,196.855 167.5,197.5C 165.972,198.861 164.305,200.028 162.5,201C 156.843,201.499 151.176,201.666 145.5,201.5C 145.5,200.5 145.5,199.5 145.5,198.5C 109.857,195.523 90.5233,176.19 87.5,140.5C 90.5291,104.804 109.862,85.4709 145.5,82.5C 145.5,81.1667 145.5,79.8333 145.5,78.5 Z"/></g>
<g><path style="opacity:0.734" fill="#4c4d4d" d="M 145.5,87.5 C 156.172,87.3335 166.839,87.5002 177.5,88C 179.167,89.1667 180.833,90.3333 182.5,91.5C 167.758,91.9667 153.092,93.1333 138.5,95C 114.588,100.749 101.588,115.916 99.5,140.5C 101.67,165.502 115.003,180.669 139.5,186C 154.167,186.333 168.833,186.667 183.5,187C 182.449,188.385 181.116,189.385 179.5,190C 162.995,191.368 146.661,190.368 130.5,187C 109.076,179.022 97.743,163.522 96.5,140.5C 99.1828,110.484 115.516,94.1505 145.5,91.5C 145.5,90.1667 145.5,88.8333 145.5,87.5 Z"/></g>
<g><path style="opacity:0.797" fill="#4c4d4d" d="M 145.5,97.5 C 161.503,97.3334 177.503,97.5001 193.5,98C 194.833,99 196.167,100 197.5,101C 180.503,101.5 163.503,101.667 146.5,101.5C 146.5,102.5 146.5,103.5 146.5,104.5C 131.491,104.665 120.325,111.332 113,124.5C 105.74,144.052 110.573,159.885 127.5,172C 131.068,173.618 134.735,174.951 138.5,176C 158.833,176.333 179.167,176.667 199.5,177C 198.167,178 196.833,179 195.5,180C 176.466,180.906 157.466,180.573 138.5,179C 115.979,172.795 105.479,157.961 107,134.5C 111.407,113.588 124.241,102.588 145.5,101.5C 145.5,100.167 145.5,98.8333 145.5,97.5 Z"/></g>
<g><path style="opacity:0.943" fill="#000000" d="M 432.5,101.5 C 444.167,101.5 455.833,101.5 467.5,101.5C 467.5,104.833 467.5,108.167 467.5,111.5C 455.833,111.5 444.167,111.5 432.5,111.5C 432.5,108.167 432.5,104.833 432.5,101.5 Z"/></g>
<g><path style="opacity:0.744" fill="#4c4d4d" d="M 145.5,136.5 C 182.502,136.333 219.502,136.5 256.5,137C 258.988,138.685 258.655,140.019 255.5,141C 218.835,141.5 182.168,141.667 145.5,141.5C 145.5,139.833 145.5,138.167 145.5,136.5 Z"/></g>
<g><path style="opacity:0.986" fill="#5c5d5c" d="M 647.5,183.5 C 670.167,183.5 692.833,183.5 715.5,183.5C 715.5,190.167 715.5,196.833 715.5,203.5C 721.167,203.5 726.833,203.5 732.5,203.5C 732.5,210.833 732.5,218.167 732.5,225.5C 726.833,225.5 721.167,225.5 715.5,225.5C 715.5,280.5 715.5,335.5 715.5,390.5C 692.833,390.5 670.167,390.5 647.5,390.5C 647.5,335.5 647.5,280.5 647.5,225.5C 641.5,225.5 635.5,225.5 629.5,225.5C 629.5,218.167 629.5,210.833 629.5,203.5C 635.5,203.5 641.5,203.5 647.5,203.5C 647.5,196.833 647.5,190.167 647.5,183.5 Z"/></g>
<g><path style="opacity:0.994" fill="#5c5d5c" d="M 340.5,248.5 C 405.879,248.014 471.212,248.514 536.5,250C 542.392,252.892 546.559,257.392 549,263.5C 549.667,300.833 549.667,338.167 549,375.5C 546.585,381.583 542.418,386.083 536.5,389C 471.222,390.344 405.889,391.178 340.5,391.5C 340.5,343.833 340.5,296.167 340.5,248.5 Z M 408.5,304.5 C 431.836,304.333 455.169,304.5 478.5,305C 479.416,305.374 480.25,305.874 481,306.5C 481.813,314.08 481.647,321.58 480.5,329C 456.502,329.5 432.502,329.667 408.5,329.5C 408.5,321.167 408.5,312.833 408.5,304.5 Z"/></g>
<g><path style="opacity:0.985" fill="#de1a05" d="M 56.5,249.5 C 115.501,249.333 174.501,249.5 233.5,250C 238.757,252.256 242.257,256.09 244,261.5C 244.5,275.163 244.667,288.829 244.5,302.5C 225.164,302.667 205.83,302.5 186.5,302C 171.829,276.221 150.829,269.221 123.5,281C 103.146,295.064 96.979,313.898 105,337.5C 118.52,361.564 138.353,369.064 164.5,360C 174.245,354.589 181.579,346.922 186.5,337C 205.83,336.5 225.164,336.333 244.5,336.5C 244.667,350.171 244.5,363.837 244,377.5C 242.314,382.394 239.147,385.894 234.5,388C 174.833,388.667 115.167,388.667 55.5,388C 50.5723,386.073 47.4056,382.573 46,377.5C 45.3333,338.5 45.3333,299.5 46,260.5C 47.6844,254.984 51.1844,251.318 56.5,249.5 Z"/></g>
<g><path style="opacity:0.969" fill="#5c5d5c" d="M 565.5,249.5 C 588.167,249.5 610.833,249.5 633.5,249.5C 633.5,256.5 633.5,263.5 633.5,270.5C 610.833,270.5 588.167,270.5 565.5,270.5C 565.5,263.5 565.5,256.5 565.5,249.5 Z"/></g>
<g><path style="opacity:0.896" fill="#de1a05" d="M 139.5,279.5 C 140.833,279.5 142.167,279.5 143.5,279.5C 143.5,283.167 143.5,286.833 143.5,290.5C 126.567,292.767 117.567,302.433 116.5,319.5C 117.596,336.594 126.596,346.261 143.5,348.5C 143.5,352.167 143.5,355.833 143.5,359.5C 120.243,356.243 107.576,342.909 105.5,319.5C 107.18,297.829 118.513,284.496 139.5,279.5 Z"/></g>
<g><path style="opacity:0.897" fill="#de1a05" d="M 147.5,279.5 C 165.666,281.008 177.666,290.342 183.5,307.5C 223.5,307.5 263.5,307.5 303.5,307.5C 303.5,310.833 303.5,314.167 303.5,317.5C 260.832,317.667 218.165,317.5 175.5,317C 172.451,301.449 163.118,292.616 147.5,290.5C 147.5,286.833 147.5,283.167 147.5,279.5 Z"/></g>
<g><path style="opacity:0.986" fill="#5c5d5c" d="M 565.5,279.5 C 588.167,279.5 610.833,279.5 633.5,279.5C 633.5,316.833 633.5,354.167 633.5,391.5C 610.833,391.5 588.167,391.5 565.5,391.5C 565.5,354.167 565.5,316.833 565.5,279.5 Z"/></g>
<g><path style="opacity:0.889" fill="#de1a05" d="M 141.5,293.5 C 143.467,301.097 144.134,309.097 143.5,317.5C 135.5,317.5 127.5,317.5 119.5,317.5C 121.675,304.662 129.008,296.662 141.5,293.5 Z"/></g>
<g><path style="opacity:0.895" fill="#de1a05" d="M 147.5,293.5 C 161.209,295.875 169.209,303.875 171.5,317.5C 163.5,317.5 155.5,317.5 147.5,317.5C 147.5,309.5 147.5,301.5 147.5,293.5 Z"/></g>
<g><path style="opacity:0.915" fill="#de1a05" d="M 119.5,322.5 C 127.5,322.5 135.5,322.5 143.5,322.5C 143.5,330.167 143.5,337.833 143.5,345.5C 129.644,343.978 121.644,336.312 119.5,322.5 Z"/></g>
<g><path style="opacity:0.917" fill="#de1a05" d="M 147.5,322.5 C 155.5,322.5 163.5,322.5 171.5,322.5C 169.37,336.297 161.37,343.964 147.5,345.5C 147.5,337.833 147.5,330.167 147.5,322.5 Z"/></g>
<g><path style="opacity:0.948" fill="#de1a05" d="M 174.5,322.5 C 217.5,322.5 260.5,322.5 303.5,322.5C 303.5,325.5 303.5,328.5 303.5,331.5C 263.5,331.5 223.5,331.5 183.5,331.5C 177.705,348.61 165.705,357.943 147.5,359.5C 147.5,355.833 147.5,352.167 147.5,348.5C 160.86,347.315 169.693,340.315 174,327.5C 174.494,325.866 174.66,324.199 174.5,322.5 Z"/></g>
<g><path style="opacity:0.908" fill="#000000" d="M 413.5,402.5 C 415.833,402.5 418.167,402.5 420.5,402.5C 420.5,421.833 420.5,441.167 420.5,460.5C 418.167,460.5 415.833,460.5 413.5,460.5C 413.66,458.801 413.494,457.134 413,455.5C 406.803,461.104 399.969,461.937 392.5,458C 385.607,449.912 383.774,440.745 387,430.5C 390.939,421.282 397.772,418.116 407.5,421C 409.624,422.122 411.457,423.622 413,425.5C 413.5,417.841 413.666,410.174 413.5,402.5 Z M 400.5,426.5 C 408.901,427.239 413.235,431.905 413.5,440.5C 413.076,447.379 409.743,452.046 403.5,454.5C 396.752,452.357 393.419,447.69 393.5,440.5C 393.759,434.648 396.093,429.981 400.5,426.5 Z"/></g>
<g><path style="opacity:0.792" fill="#000000" d="M 452.5,403.5 C 455.167,403.5 457.833,403.5 460.5,403.5C 460.5,406.167 460.5,408.833 460.5,411.5C 457.833,411.5 455.167,411.5 452.5,411.5C 452.5,408.833 452.5,406.167 452.5,403.5 Z"/></g>
<g><path style="opacity:0.929" fill="#000000" d="M 499.5,409.5 C 500.5,409.5 501.5,409.5 502.5,409.5C 502.5,413.5 502.5,417.5 502.5,421.5C 505.5,421.5 508.5,421.5 511.5,421.5C 511.5,423.5 511.5,425.5 511.5,427.5C 508.5,427.5 505.5,427.5 502.5,427.5C 502.13,435.903 502.63,444.236 504,452.5C 505.972,454.442 508.139,454.776 510.5,453.5C 511.635,455.707 512.301,458.04 512.5,460.5C 508.486,460.666 504.486,460.499 500.5,460C 499.069,459.535 497.903,458.701 497,457.5C 495.577,447.58 495.077,437.58 495.5,427.5C 492.833,427.5 490.167,427.5 487.5,427.5C 487.5,425.5 487.5,423.5 487.5,421.5C 490.167,421.5 492.833,421.5 495.5,421.5C 495.18,418.102 495.513,414.768 496.5,411.5C 497.739,411.058 498.739,410.391 499.5,409.5 Z"/></g>
<g><path style="opacity:0.868" fill="#000000" d="M 346.5,420.5 C 350.582,420.344 354.582,420.844 358.5,422C 359.777,424.466 359.777,426.966 358.5,429.5C 345.438,425.064 338.938,429.731 339,443.5C 342.434,453.464 348.934,456.13 358.5,451.5C 359.48,454.086 359.813,456.753 359.5,459.5C 337.057,463.223 327.89,453.89 332,431.5C 335.161,425.515 339.995,421.849 346.5,420.5 Z"/></g>
<g><path style="opacity:0.883" fill="#000000" d="M 591.5,420.5 C 611.064,418.898 619.231,427.898 616,447.5C 611.476,459.512 602.976,463.678 590.5,460C 582.576,455.992 578.909,449.492 579.5,440.5C 578.956,430.894 582.956,424.228 591.5,420.5 Z M 595.5,426.5 C 604.335,426.768 608.668,431.435 608.5,440.5C 608.558,447.931 605.058,452.597 598,454.5C 590.91,452.696 587.41,448.029 587.5,440.5C 587.318,434.056 589.984,429.389 595.5,426.5 Z"/></g>
<g><path style="opacity:0.849" fill="#000000" d="M 659.5,420.5 C 661.833,420.5 664.167,420.5 666.5,420.5C 666.5,423.167 666.5,425.833 666.5,428.5C 661.435,427.071 657.602,428.738 655,433.5C 653.619,442.432 653.119,451.432 653.5,460.5C 650.833,460.5 648.167,460.5 645.5,460.5C 645.5,447.5 645.5,434.5 645.5,421.5C 648.167,421.5 650.833,421.5 653.5,421.5C 653.343,422.873 653.51,424.207 654,425.5C 655.352,423.251 657.185,421.584 659.5,420.5 Z"/></g>
<g><path style="opacity:0.892" fill="#000000" d="M 700.5,420.5 C 704.514,420.334 708.514,420.501 712.5,421C 714.624,422.122 716.457,423.622 718,425.5C 718.49,424.207 718.657,422.873 718.5,421.5C 720.833,421.5 723.167,421.5 725.5,421.5C 725.952,436.905 725.452,452.238 724,467.5C 720.188,474.323 714.355,477.323 706.5,476.5C 702.67,476.633 699.004,475.966 695.5,474.5C 694.348,471.894 694.182,469.227 695,466.5C 700.243,469.686 705.743,470.52 711.5,469C 716.882,465.672 719.049,460.838 718,454.5C 708.568,463.096 700.235,462.096 693,451.5C 689.506,442.481 690.172,433.815 695,425.5C 696.73,423.598 698.563,421.931 700.5,420.5 Z M 706.5,426.5 C 714.328,427.503 717.995,432.003 717.5,440C 718.256,447.067 715.256,451.567 708.5,453.5C 701.668,451.694 698.668,447.194 699.5,440C 698.839,433.818 701.172,429.318 706.5,426.5 Z"/></g>
<g><path style="opacity:0.865" fill="#000000" d="M 45.5,421.5 C 48.4475,421.223 51.2809,421.556 54,422.5C 56.2126,431.694 58.8792,440.694 62,449.5C 64.8175,440.228 67.3175,430.895 69.5,421.5C 73.1064,421.211 76.6064,421.544 80,422.5C 82.6667,431.833 85.3333,441.167 88,450.5C 90.9776,441.256 93.6443,431.923 96,422.5C 98.7372,421.39 101.571,421.223 104.5,422C 99.9982,434.672 95.9982,447.506 92.5,460.5C 89.4281,460.817 86.4281,460.484 83.5,459.5C 80.5125,449.884 77.6792,440.218 75,430.5C 71.5461,439.97 68.5461,449.636 66,459.5C 62.9433,460.451 59.7766,460.784 56.5,460.5C 53.0385,447.448 49.3718,434.448 45.5,421.5 Z"/></g>
<g><path style="opacity:0.869" fill="#000000" d="M 125.5,422.5 C 128.287,421.523 131.287,421.19 134.5,421.5C 136.995,431.481 139.495,441.481 142,451.5C 144.511,441.789 147.178,432.123 150,422.5C 153.394,421.544 156.894,421.211 160.5,421.5C 162.688,430.9 165.188,440.234 168,449.5C 171.446,440.389 174.28,431.056 176.5,421.5C 179.247,421.187 181.914,421.52 184.5,422.5C 180.5,434.833 176.5,447.167 172.5,459.5C 169.572,460.484 166.572,460.817 163.5,460.5C 160.978,450.099 158.145,439.766 155,429.5C 151.853,439.772 149.019,450.105 146.5,460.5C 143.223,460.784 140.057,460.451 137,459.5C 133.429,446.962 129.596,434.629 125.5,422.5 Z"/></g>
<g><path style="opacity:0.872" fill="#000000" d="M 206.5,421.5 C 209.247,421.187 211.914,421.52 214.5,422.5C 217.154,431.45 219.654,440.45 222,449.5C 225.446,440.389 228.28,431.056 230.5,421.5C 233.898,421.18 237.232,421.513 240.5,422.5C 243.234,431.869 246.068,441.202 249,450.5C 251.662,440.851 254.162,431.184 256.5,421.5C 259.167,421.5 261.833,421.5 264.5,421.5C 261.002,434.494 257.002,447.328 252.5,460C 249.571,460.777 246.737,460.61 244,459.5C 241.385,449.657 238.385,439.991 235,430.5C 232.266,440.202 229.433,449.868 226.5,459.5C 223.572,460.484 220.572,460.817 217.5,460.5C 213.628,447.552 209.962,434.552 206.5,421.5 Z"/></g>
<g><path style="opacity:0.858" fill="#000000" d="M 452.5,421.5 C 455.167,421.5 457.833,421.5 460.5,421.5C 460.5,434.5 460.5,447.5 460.5,460.5C 457.833,460.5 455.167,460.5 452.5,460.5C 452.5,447.5 452.5,434.5 452.5,421.5 Z"/></g>
<g><path style="opacity:0.789" fill="#000000" d="M 291.5,451.5 C 294.5,451.5 297.5,451.5 300.5,451.5C 300.5,454.5 300.5,457.5 300.5,460.5C 297.5,460.5 294.5,460.5 291.5,460.5C 291.5,457.5 291.5,454.5 291.5,451.5 Z"/></g>
<g><path style="opacity:0.789" fill="#000000" d="M 540.5,451.5 C 543.5,451.5 546.5,451.5 549.5,451.5C 549.5,454.5 549.5,457.5 549.5,460.5C 546.5,460.5 543.5,460.5 540.5,460.5C 540.5,457.5 540.5,454.5 540.5,451.5 Z"/></g>
</svg>
