<svg width="86" height="86" viewBox="0 0 86 86" fill="none" xmlns="http://www.w3.org/2000/svg">
<path fill-rule="evenodd" clip-rule="evenodd" d="M64.8767 8.82988L37.5763 41.0118L83.8603 42.2773V37.1254H64.515L64.8767 8.82988Z" fill="#DA251D"/>
<path d="M42.9996 0C54.8716 0 65.6222 4.81428 73.4038 12.5958C81.1854 20.3774 86 31.128 86 42.9996C86 54.8716 81.1861 65.6219 73.4038 73.4038C65.6222 81.1854 54.8716 86 42.9996 86C31.128 86 20.3774 81.1854 12.5958 73.4038C4.81425 65.6222 0 54.8716 0 42.9996C0 31.128 4.81393 20.3781 12.5962 12.5958C20.3778 4.81425 31.128 0 42.9996 0ZM3.29712 40.1369H82.7028C82.0022 30.2875 77.7175 21.427 71.145 14.8546C63.9417 7.65131 53.9899 3.1951 42.9996 3.1951C32.0096 3.1951 22.0578 7.65162 14.8548 14.8546C8.282 21.4274 3.99764 30.2878 3.29712 40.1369ZM82.8028 43.332H3.19714C3.28597 54.1906 7.72402 64.0146 14.8545 71.1451C22.0578 78.3484 32.0097 82.805 42.9996 82.805C53.99 82.805 63.9418 78.3485 71.1451 71.1451C78.276 64.0146 82.7139 54.1907 82.8028 43.332Z" fill="black"/>
<path d="M13.6219 52.1776L15.0759 52.7388C14.8481 53.7542 14.4722 54.4952 13.9448 54.9637C13.4171 55.4302 12.767 55.6643 11.9965 55.6643C11.0277 55.6643 10.2425 55.2908 9.64089 54.5457C8.94662 53.6846 8.60036 52.5214 8.60036 51.0587C8.60036 49.5116 8.94871 48.3021 9.64717 47.4281C10.253 46.6704 11.0657 46.2907 12.0895 46.2907C12.921 46.2907 13.6174 46.5757 14.1789 47.1431C14.5778 47.5486 14.8715 48.1482 15.0571 48.9438L13.5731 49.3765C13.4784 48.8846 13.2903 48.5091 13.0074 48.2471C12.7245 47.9855 12.3912 47.8545 12.009 47.8545C11.4604 47.8545 11.0127 48.0931 10.6668 48.5725C10.3205 49.0494 10.1474 49.8387 10.1474 50.9406C10.1474 52.0825 10.3164 52.8952 10.6539 53.3763C10.9918 53.8598 11.4307 54.1002 11.971 54.1002C12.3678 54.1002 12.7099 53.9462 12.997 53.6403C13.2861 53.332 13.4951 52.8443 13.6219 52.1776ZM19.5781 51.0336C19.5781 49.9526 19.7363 49.064 20.0571 48.3655C20.3758 47.6667 20.7939 47.1456 21.3087 46.8035C21.824 46.4614 22.4486 46.2907 23.1832 46.2907C24.2471 46.2907 25.1124 46.6959 25.7837 47.5086C26.4529 48.3209 26.7884 49.4778 26.7884 50.9786C26.7884 52.4939 26.4338 53.6804 25.7245 54.5332C25.102 55.2888 24.2576 55.6643 23.1895 55.6643C22.1131 55.6643 21.2645 55.2909 20.642 54.5457C19.9327 53.6929 19.5781 52.5214 19.5781 51.0336ZM21.1231 50.9723C21.1231 52.0149 21.3216 52.7959 21.7163 53.3174C22.1131 53.8385 22.6029 54.1002 23.1895 54.1002C23.7786 54.1002 24.2659 53.8406 24.6543 53.3237C25.0428 52.8064 25.2347 52.0128 25.2347 50.9406C25.2347 49.8892 25.0469 49.1127 24.6693 48.6083C24.2934 48.1056 23.7995 47.8545 23.1895 47.8545C22.5795 47.8545 22.0814 48.1081 21.6992 48.6146C21.3154 49.1232 21.1231 49.9084 21.1231 50.9723ZM31.0986 52.5615L32.5634 52.3862C32.7278 53.5452 33.2681 54.1256 34.1843 54.1256C34.6361 54.1256 34.9928 54.0075 35.2524 53.7689C35.514 53.5327 35.6429 53.239 35.6429 52.8889C35.6429 52.682 35.5986 52.5068 35.5077 52.3633C35.4171 52.2176 35.2778 52.0992 35.0921 52.0065C34.9061 51.9135 34.4588 51.7596 33.7454 51.5401C33.1058 51.3457 32.6373 51.1367 32.3415 50.9089C32.044 50.6831 31.8075 50.3853 31.6326 50.016C31.4574 49.6468 31.3706 49.25 31.3706 48.8257C31.3706 48.3317 31.4825 47.8862 31.7065 47.4894C31.9322 47.0947 32.2426 46.7951 32.6373 46.5924C33.034 46.3917 33.5217 46.2907 34.1042 46.2907C34.9779 46.2907 35.6596 46.5269 36.1494 47.0017C36.6413 47.4748 36.9008 48.1544 36.9283 49.0368L35.4276 49.1169C35.36 48.6292 35.2186 48.2896 34.9991 48.0952C34.7818 47.9032 34.4693 47.8061 34.0662 47.8061C33.6628 47.8061 33.3507 47.8904 33.1333 48.0593C32.9135 48.2283 32.8038 48.4373 32.8038 48.6905C32.8038 48.9375 32.9031 49.1444 33.1016 49.313C33.2998 49.4841 33.7558 49.6677 34.4672 49.8704C35.2228 50.0899 35.7673 50.3201 36.1031 50.5605C36.4385 50.8012 36.6963 51.1137 36.8733 51.4934C37.0506 51.8755 37.1394 52.3378 37.1394 52.8823C37.1394 53.6696 36.8966 54.3304 36.4135 54.8665C35.9278 55.4027 35.1702 55.6705 34.1401 55.6705C32.3185 55.6705 31.3031 54.6342 31.0986 52.5615ZM43.5938 55.5103V47.9792H41.3859V46.4447H47.2919V47.9792H45.0903V55.5103H43.5938ZM51.7875 55.5103V46.4447H57.3051V47.9792H53.284V49.9885H57.0201V51.5146H53.284V53.982H57.4403V55.5103L51.7875 55.5103ZM66.987 52.1776L68.441 52.7388C68.2132 53.7542 67.8373 54.4952 67.3099 54.9637C66.7822 55.4302 66.1321 55.6643 65.3616 55.6643C64.3928 55.6643 63.6076 55.2908 63.006 54.5457C62.3117 53.6846 61.9655 52.5214 61.9655 51.0587C61.9655 49.5116 62.3138 48.3021 63.0123 47.4281C63.6181 46.6704 64.4308 46.2907 65.4546 46.2907C66.2861 46.2907 66.9825 46.5757 67.544 47.1431C67.9429 47.5486 68.2366 48.1482 68.4222 48.9438L66.9382 49.3765C66.8435 48.8846 66.6554 48.5091 66.3725 48.2471C66.0897 47.9855 65.7563 47.8545 65.3741 47.8545C64.8255 47.8545 64.3778 48.0931 64.0319 48.5725C63.6856 49.0494 63.5125 49.8387 63.5125 50.9406C63.5125 52.0825 63.6815 52.8952 64.019 53.3763C64.3569 53.8598 64.7959 54.1002 65.3362 54.1002C65.7329 54.1002 66.075 53.9462 66.3621 53.6403C66.6512 53.332 66.8602 52.8443 66.987 52.1776ZM73.2449 55.5103V46.4447H74.7414V50.0118H77.6861V46.4447H79.1889V55.5103H77.6861V51.5464H74.7414V55.5103H73.2449Z" fill="black"/>
</svg>
