<?xml version="1.0" encoding="UTF-8"?>
<!DOCTYPE svg PUBLIC "-//W3C//DTD SVG 1.1//EN" "http://www.w3.org/Graphics/SVG/1.1/DTD/svg11.dtd">
<svg xmlns="http://www.w3.org/2000/svg" version="1.1" width="1307px" height="280px" style="shape-rendering:geometricPrecision; text-rendering:geometricPrecision; image-rendering:optimizeQuality; fill-rule:evenodd; clip-rule:evenodd" xmlns:xlink="http://www.w3.org/1999/xlink">
<g><path style="opacity:0.893" fill="#221f20" d="M 1281.5,-0.5 C 1285.83,-0.5 1290.17,-0.5 1294.5,-0.5C 1296.77,0.97576 1299.1,2.47576 1301.5,4C 1303.07,6.32558 1304.73,8.49224 1306.5,10.5C 1306.5,16.1667 1306.5,21.8333 1306.5,27.5C 1298.55,39.1052 1288.22,41.6052 1275.5,35C 1266.65,26.42 1265.48,16.92 1272,6.5C 1274.82,3.52399 1277.99,1.19065 1281.5,-0.5 Z M 1285.5,2.5 C 1301.7,4.57573 1306.87,13.2424 1301,28.5C 1291.68,37.8456 1282.68,37.5123 1274,27.5C 1269.19,15.1168 1273.03,6.78351 1285.5,2.5 Z M 1283.5,10.5 C 1286.52,10.3354 1289.52,10.502 1292.5,11C 1295.23,13.4348 1294.89,15.4348 1291.5,17C 1288.85,17.4974 1286.19,17.6641 1283.5,17.5C 1283.5,15.1667 1283.5,12.8333 1283.5,10.5 Z"/></g>
<g><path style="opacity:0.963" fill="#221f20" d="M 1.5,0.5 C 11.5,0.5 21.5,0.5 31.5,0.5C 31.5,2.16667 31.5,3.83333 31.5,5.5C 27.5,5.5 23.5,5.5 19.5,5.5C 19.5,15.8333 19.5,26.1667 19.5,36.5C 17.5,36.5 15.5,36.5 13.5,36.5C 13.5,26.1667 13.5,15.8333 13.5,5.5C 9.5,5.5 5.5,5.5 1.5,5.5C 1.5,3.83333 1.5,2.16667 1.5,0.5 Z"/></g>
<g><path style="opacity:0.82" fill="#221e20" d="M 38.5,0.5 C 40.5,0.5 42.5,0.5 44.5,0.5C 44.5,5.5 44.5,10.5 44.5,15.5C 50.8333,15.5 57.1667,15.5 63.5,15.5C 63.5,10.5 63.5,5.5 63.5,0.5C 65.5,0.5 67.5,0.5 69.5,0.5C 69.5,12.5 69.5,24.5 69.5,36.5C 67.5,36.5 65.5,36.5 63.5,36.5C 63.5,31.5 63.5,26.5 63.5,21.5C 57.1667,21.5 50.8333,21.5 44.5,21.5C 44.5,26.5 44.5,31.5 44.5,36.5C 42.5,36.5 40.5,36.5 38.5,36.5C 38.5,24.5 38.5,12.5 38.5,0.5 Z"/></g>
<g><path style="opacity:0.822" fill="#231e20" d="M 79.5,0.5 C 81.5,0.5 83.5,0.5 85.5,0.5C 85.5,12.5 85.5,24.5 85.5,36.5C 83.5,36.5 81.5,36.5 79.5,36.5C 79.5,24.5 79.5,12.5 79.5,0.5 Z"/></g>
<g><path style="opacity:0.88" fill="#221e20" d="M 95.5,0.5 C 101.732,-0.0613636 107.732,0.77197 113.5,3C 117.93,9.22992 117.263,14.8966 111.5,20C 116.23,24.7967 120.23,30.13 123.5,36C 121.167,36.6667 118.833,36.6667 116.5,36C 113.557,30.7888 109.89,26.1222 105.5,22C 104.207,21.51 102.873,21.3433 101.5,21.5C 101.5,26.5 101.5,31.5 101.5,36.5C 99.5,36.5 97.5,36.5 95.5,36.5C 95.5,24.5 95.5,12.5 95.5,0.5 Z M 101.5,5.5 C 109.361,5.14946 111.694,8.31613 108.5,15C 106.19,15.4966 103.857,15.6633 101.5,15.5C 101.5,12.1667 101.5,8.83333 101.5,5.5 Z"/></g>
<g><path style="opacity:0.869" fill="#221e20" d="M 127.5,0.5 C 129.5,0.5 131.5,0.5 133.5,0.5C 133.334,9.17307 133.5,17.8397 134,26.5C 135.8,30.235 138.8,31.9017 143,31.5C 147.2,31.9017 150.2,30.235 152,26.5C 152.5,17.8397 152.666,9.17307 152.5,0.5C 154.5,0.5 156.5,0.5 158.5,0.5C 158.666,9.50617 158.5,18.5062 158,27.5C 155.367,34.2796 150.367,37.6129 143,37.5C 137.115,37.5576 132.449,35.2243 129,30.5C 127.577,20.5797 127.077,10.5797 127.5,0.5 Z"/></g>
<g><path style="opacity:0.906" fill="#221e20" d="M 163.5,1.5 C 165.56,0.188796 167.726,0.188796 170,1.5C 173.528,9.0841 176.861,16.7508 180,24.5C 183.139,16.7508 186.472,9.0841 190,1.5C 191.699,0.593906 193.533,0.260572 195.5,0.5C 191.389,13.0147 186.222,25.0147 180,36.5C 174.21,24.9591 168.71,13.2925 163.5,1.5 Z"/></g>
<g><path style="opacity:0.908" fill="#221e20" d="M 209.5,0.5 C 211.144,0.286495 212.644,0.619828 214,1.5C 219.07,12.8755 224.236,24.2088 229.5,35.5C 227.579,36.641 225.579,36.8077 223.5,36C 221.765,33.3632 220.432,30.5299 219.5,27.5C 214.533,26.3377 209.533,26.1711 204.5,27C 202.765,29.6368 201.432,32.4701 200.5,35.5C 198.604,36.4656 196.604,36.7989 194.5,36.5C 198.944,24.2769 203.944,12.2769 209.5,0.5 Z M 210.5,10.5 C 213.207,13.2466 214.873,16.5799 215.5,20.5C 212.833,20.5 210.167,20.5 207.5,20.5C 208.5,17.1667 209.5,13.8333 210.5,10.5 Z"/></g>
<g><path style="opacity:0.842" fill="#221e20" d="M 235.5,0.5 C 237.199,0.339822 238.866,0.506489 240.5,1C 248.372,9.20317 255.872,17.7032 263,26.5C 263.5,17.8397 263.666,9.17307 263.5,0.5C 265.5,0.5 267.5,0.5 269.5,0.5C 269.5,12.5 269.5,24.5 269.5,36.5C 267.473,36.6621 265.473,36.4955 263.5,36C 256.687,27.5522 249.52,19.3855 242,11.5C 241.5,19.8267 241.334,28.16 241.5,36.5C 239.5,36.5 237.5,36.5 235.5,36.5C 235.5,24.5 235.5,12.5 235.5,0.5 Z"/></g>
<g><path style="opacity:0.908" fill="#221e20" d="M 290.5,0.5 C 292.144,0.286495 293.644,0.619828 295,1.5C 300.07,12.8755 305.236,24.2088 310.5,35.5C 308.579,36.641 306.579,36.8077 304.5,36C 302.765,33.3632 301.432,30.5299 300.5,27.5C 295.533,26.3377 290.533,26.1711 285.5,27C 284.074,29.7733 282.74,32.6066 281.5,35.5C 279.5,36.8333 277.5,36.8333 275.5,35.5C 280.239,23.6914 285.239,12.0247 290.5,0.5 Z M 291.5,10.5 C 294.207,13.2466 295.873,16.5799 296.5,20.5C 293.753,20.8134 291.086,20.48 288.5,19.5C 289.801,16.5729 290.801,13.5729 291.5,10.5 Z"/></g>
<g><path style="opacity:0.878" fill="#221e20" d="M 316.5,0.5 C 318.604,0.201097 320.604,0.534431 322.5,1.5C 329.854,9.68596 337.02,18.0193 344,26.5C 344.5,17.8397 344.666,9.17307 344.5,0.5C 346.5,0.5 348.5,0.5 350.5,0.5C 350.5,12.5 350.5,24.5 350.5,36.5C 348.473,36.6621 346.473,36.4955 344.5,36C 337.706,27.5369 330.539,19.3703 323,11.5C 322.5,19.8267 322.334,28.16 322.5,36.5C 320.5,36.5 318.5,36.5 316.5,36.5C 316.5,24.5 316.5,12.5 316.5,0.5 Z"/></g>
<g><path style="opacity:0.893" fill="#221e20" d="M 357.5,0.5 C 367.5,0.5 377.5,0.5 387.5,0.5C 387.5,2.16667 387.5,3.83333 387.5,5.5C 383.5,5.5 379.5,5.5 375.5,5.5C 375.5,15.8333 375.5,26.1667 375.5,36.5C 373.5,36.5 371.5,36.5 369.5,36.5C 369.5,26.1667 369.5,15.8333 369.5,5.5C 365.5,5.5 361.5,5.5 357.5,5.5C 357.5,3.83333 357.5,2.16667 357.5,0.5 Z"/></g>
<g><path style="opacity:0.82" fill="#221e20" d="M 394.5,0.5 C 396.5,0.5 398.5,0.5 400.5,0.5C 400.5,5.5 400.5,10.5 400.5,15.5C 406.833,15.5 413.167,15.5 419.5,15.5C 419.5,10.5 419.5,5.5 419.5,0.5C 421.5,0.5 423.5,0.5 425.5,0.5C 425.5,12.5 425.5,24.5 425.5,36.5C 423.5,36.5 421.5,36.5 419.5,36.5C 419.5,31.5 419.5,26.5 419.5,21.5C 413.167,21.5 406.833,21.5 400.5,21.5C 400.5,26.5 400.5,31.5 400.5,36.5C 398.5,36.5 396.5,36.5 394.5,36.5C 394.5,24.5 394.5,12.5 394.5,0.5 Z"/></g>
<g><path style="opacity:0.908" fill="#221e20" d="M 446.5,0.5 C 448.288,0.214775 449.955,0.548109 451.5,1.5C 456.5,12.8333 461.5,24.1667 466.5,35.5C 464.579,36.641 462.579,36.8077 460.5,36C 459.311,33.1217 457.978,30.2883 456.5,27.5C 451.533,26.3377 446.533,26.1711 441.5,27C 440.167,30 438.833,33 437.5,36C 435.421,36.8077 433.421,36.641 431.5,35.5C 436.702,23.8863 441.702,12.2196 446.5,0.5 Z M 448.5,10.5 C 450.057,13.624 451.723,16.7907 453.5,20C 450.446,20.8214 447.446,20.6548 444.5,19.5C 445.84,16.4707 447.173,13.4707 448.5,10.5 Z"/></g>
<g><path style="opacity:0.888" fill="#221e20" d="M 472.5,0.5 C 477.844,0.333983 483.177,0.500649 488.5,1C 494.795,3.42522 496.962,7.92522 495,14.5C 494.027,18.4064 491.527,20.573 487.5,21C 484.518,21.498 481.518,21.6646 478.5,21.5C 478.5,26.5 478.5,31.5 478.5,36.5C 476.5,36.5 474.5,36.5 472.5,36.5C 472.5,24.5 472.5,12.5 472.5,0.5 Z M 478.5,5.5 C 482.516,4.89995 486.016,5.89995 489,8.5C 489.896,11.025 489.396,13.1917 487.5,15C 484.607,16.1488 481.607,16.6488 478.5,16.5C 478.5,12.8333 478.5,9.16667 478.5,5.5 Z"/></g>
<g><path style="opacity:0.901" fill="#221e20" d="M 501.5,0.5 C 503.5,0.5 505.5,0.5 507.5,0.5C 507.334,8.83999 507.5,17.1733 508,25.5C 509.262,29.9722 512.262,31.9722 517,31.5C 520.735,31.7989 523.735,30.4655 526,27.5C 526.5,18.5062 526.666,9.50617 526.5,0.5C 528.5,0.5 530.5,0.5 532.5,0.5C 532.923,10.5797 532.423,20.5797 531,30.5C 523.837,37.9952 515.67,39.1619 506.5,34C 504.383,32.2691 502.883,30.1024 502,27.5C 501.5,18.5062 501.334,9.50617 501.5,0.5 Z"/></g>
<g><path style="opacity:0.928" fill="#221f20" d="M 542.5,0.5 C 547.93,0.160996 553.264,0.660996 558.5,2C 565.156,7.95323 565.156,13.9532 558.5,20C 562.781,24.7274 566.448,29.8941 569.5,35.5C 567.167,36.8333 564.833,36.8333 562.5,35.5C 559.776,30.5545 556.443,26.0545 552.5,22C 551.207,21.51 549.873,21.3433 548.5,21.5C 548.5,26.5 548.5,31.5 548.5,36.5C 546.5,36.5 544.5,36.5 542.5,36.5C 542.5,24.5 542.5,12.5 542.5,0.5 Z M 548.5,5.5 C 556.305,5.10129 558.638,8.26795 555.5,15C 553.19,15.4966 550.857,15.6633 548.5,15.5C 548.5,12.1667 548.5,8.83333 548.5,5.5 Z"/></g>
<g><path style="opacity:0.909" fill="#221e20" d="M 587.5,0.5 C 589.288,0.214775 590.955,0.548109 592.5,1.5C 597.5,12.8333 602.5,24.1667 607.5,35.5C 605.5,36.8333 603.5,36.8333 601.5,35.5C 600.167,32.8333 598.833,30.1667 597.5,27.5C 592.5,26.1667 587.5,26.1667 582.5,27.5C 581.022,30.2883 579.689,33.1217 578.5,36C 576.421,36.8077 574.421,36.641 572.5,35.5C 577.788,23.928 582.788,12.2613 587.5,0.5 Z M 589.5,10.5 C 591.438,13.4449 593.105,16.6116 594.5,20C 591.446,20.8214 588.446,20.6548 585.5,19.5C 587.122,16.5918 588.456,13.5918 589.5,10.5 Z"/></g>
<g><path style="opacity:0.906" fill="#221e20" d="M 613.5,0.5 C 615.527,0.337876 617.527,0.504543 619.5,1C 623.333,5.5 627.167,10 631,14.5C 634.621,10.0905 638.121,5.59048 641.5,1C 643.473,0.504543 645.473,0.337876 647.5,0.5C 647.5,12.5 647.5,24.5 647.5,36.5C 645.5,36.5 643.5,36.5 641.5,36.5C 641.666,28.16 641.5,19.8267 641,11.5C 637.966,15.5294 634.633,19.1961 631,22.5C 627.034,18.8636 623.368,14.8636 620,10.5C 619.5,19.1603 619.334,27.8269 619.5,36.5C 617.5,36.5 615.5,36.5 613.5,36.5C 613.5,24.5 613.5,12.5 613.5,0.5 Z"/></g>
<g><path style="opacity:0.975" fill="#12b14a" d="M 1188.5,194.5 C 1189.16,172.474 1188.49,150.808 1186.5,129.5C 1183.55,127.72 1180.71,125.72 1178,123.5C 1177.5,147.164 1177.33,170.831 1177.5,194.5C 1175.17,194.5 1172.83,194.5 1170.5,194.5C 1170.67,169.164 1170.5,143.831 1170,118.5C 1164.85,114.257 1159.51,110.257 1154,106.5C 1153.67,79.5 1153.33,52.5 1153,25.5C 1145.07,20.5101 1143.4,13.8435 1148,5.5C 1154.61,0.0192645 1160.94,0.352598 1167,6.5C 1170.86,14.6022 1168.86,20.9356 1161,25.5C 1160.33,51.1667 1160.33,76.8333 1161,102.5C 1164,104.833 1167,107.167 1170,109.5C 1170.83,98.4849 1170.67,87.4849 1169.5,76.5C 1160.11,70.1595 1159.44,62.9928 1167.5,55C 1180.28,51.4465 1186.11,56.2798 1185,69.5C 1184.03,72.9651 1181.87,75.2984 1178.5,76.5C 1177.33,89.1535 1177.17,101.82 1178,114.5C 1183.67,118.833 1189.33,123.167 1195,127.5C 1195.5,149.831 1195.67,172.164 1195.5,194.5C 1193.17,194.5 1190.83,194.5 1188.5,194.5 Z M 1156.5,8.5 C 1160.78,9.61052 1162.28,12.2772 1161,16.5C 1155,20.1667 1152.33,18.5 1153,11.5C 1154.15,10.3636 1155.31,9.36362 1156.5,8.5 Z M 1171.5,60.5 C 1177,59.8314 1179.17,62.1647 1178,67.5C 1175.33,71.5 1172.67,71.5 1170,67.5C 1169.17,64.829 1169.67,62.4957 1171.5,60.5 Z"/></g>
<g><path style="opacity:0.865" fill="#221e20" d="M 1280.5,7.5 C 1285.18,7.33418 1289.85,7.50085 1294.5,8C 1297.99,9.82083 1299.16,12.6542 1298,16.5C 1296.48,18.348 1294.65,19.848 1292.5,21C 1294.85,23.8685 1296.52,27.0352 1297.5,30.5C 1296.02,30.762 1294.69,30.4287 1293.5,29.5C 1291.83,26.8333 1290.17,24.1667 1288.5,21.5C 1286.95,20.5481 1285.29,20.2148 1283.5,20.5C 1283.5,23.8333 1283.5,27.1667 1283.5,30.5C 1282.5,30.5 1281.5,30.5 1280.5,30.5C 1280.5,22.8333 1280.5,15.1667 1280.5,7.5 Z M 1283.5,10.5 C 1283.5,12.8333 1283.5,15.1667 1283.5,17.5C 1286.19,17.6641 1288.85,17.4974 1291.5,17C 1294.89,15.4348 1295.23,13.4348 1292.5,11C 1289.52,10.502 1286.52,10.3354 1283.5,10.5 Z"/></g>
<g><path style="opacity:0.976" fill="#12b14a" d="M 1203.5,25.5 C 1218.04,24.6095 1222.87,30.9428 1218,44.5C 1216.59,46.4136 1214.75,47.7469 1212.5,48.5C 1211.5,97.1621 1211.17,145.829 1211.5,194.5C 1209.17,194.5 1206.83,194.5 1204.5,194.5C 1204.67,145.832 1204.5,97.1655 1204,48.5C 1196.56,44.392 1194.56,38.392 1198,30.5C 1199.73,28.5981 1201.56,26.9314 1203.5,25.5 Z M 1205.5,32.5 C 1212.17,32.3778 1214.17,35.2111 1211.5,41C 1203.75,42.0913 1201.75,39.258 1205.5,32.5 Z"/></g>
<g><path style="opacity:0.967" fill="#12b14a" d="M 1104.5,26.5 C 1116.49,26.9794 1120.99,32.9794 1118,44.5C 1116.08,46.9634 1113.75,48.9634 1111,50.5C 1110.33,70.8333 1110.33,91.1667 1111,111.5C 1115.71,115.88 1120.71,119.88 1126,123.5C 1126.5,147.164 1126.67,170.831 1126.5,194.5C 1124.17,194.5 1121.83,194.5 1119.5,194.5C 1119.67,172.164 1119.5,149.831 1119,127.5C 1116.04,125.539 1113.37,123.206 1111,120.5C 1110.5,145.164 1110.33,169.831 1110.5,194.5C 1108.17,194.5 1105.83,194.5 1103.5,194.5C 1103.67,167.831 1103.5,141.165 1103,114.5C 1096.71,109.877 1090.71,104.877 1085,99.5C 1084.83,89.1506 1084.33,78.8173 1083.5,68.5C 1076.62,64.5751 1074.78,58.9084 1078,51.5C 1084.96,43.5114 1091.96,43.5114 1099,51.5C 1102.22,59.7168 1099.89,65.7168 1092,69.5C 1091.33,78.5 1091.33,87.5 1092,96.5C 1095.67,99.5 1099.33,102.5 1103,105.5C 1103.67,87.1667 1103.67,68.8333 1103,50.5C 1095.07,45.5101 1093.4,38.8435 1098,30.5C 1100.09,28.8753 1102.26,27.5419 1104.5,26.5 Z M 1106.5,33.5 C 1109.94,33.7701 1111.94,35.6034 1112.5,39C 1111.15,43.0005 1108.49,44.3339 1104.5,43C 1101.52,39.0526 1102.19,35.8859 1106.5,33.5 Z M 1087.5,52.5 C 1090.92,52.7557 1092.92,54.589 1093.5,58C 1092.11,62.1773 1089.44,63.344 1085.5,61.5C 1082.54,57.6739 1083.21,54.6739 1087.5,52.5 Z"/></g>
<g><path style="opacity:0.968" fill="#12b14a" d="M 1240.5,44.5 C 1253.39,46.0124 1257.22,52.679 1252,64.5C 1250.62,66.2134 1248.96,67.5467 1247,68.5C 1246.67,75.8333 1246.33,83.1667 1246,90.5C 1240.96,95.2121 1235.62,99.5454 1230,103.5C 1229.5,133.832 1229.33,164.165 1229.5,194.5C 1227.17,194.5 1224.83,194.5 1222.5,194.5C 1222.17,162.826 1222.5,131.16 1223.5,99.5C 1228.5,95.5 1233.5,91.5 1238.5,87.5C 1239.83,81.1667 1239.83,74.8333 1238.5,68.5C 1230.31,64.0315 1228.48,57.6981 1233,49.5C 1235.17,47.1769 1237.67,45.5103 1240.5,44.5 Z M 1239.5,52.5 C 1243.76,51.4545 1246.42,52.9545 1247.5,57C 1245.95,61.2452 1243.12,62.4118 1239,60.5C 1237.09,57.7222 1237.26,55.0556 1239.5,52.5 Z"/></g>
<g><path style="opacity:0.991" fill="#0070bb" d="M 247.5,75.5 C 264.648,74.8705 280.981,78.2038 296.5,85.5C 297.665,93.145 297.831,100.812 297,108.5C 277.835,95.4985 257.335,92.6652 235.5,100C 213.504,114.259 208.004,133.426 219,157.5C 231.955,174.042 248.788,179.876 269.5,175C 279.684,172.664 289.018,168.497 297.5,162.5C 298.665,170.145 298.831,177.812 298,185.5C 280.548,194.437 262.048,197.603 242.5,195C 217.526,190.271 201.359,175.771 194,151.5C 187.933,121.67 197.767,98.8368 223.5,83C 231.277,79.3493 239.277,76.8493 247.5,75.5 Z"/></g>
<g><path style="opacity:0.988" fill="#0070bb" d="M 597.5,75.5 C 625.116,72.5659 646.949,82.2326 663,104.5C 677.471,134.297 672.637,160.463 648.5,183C 632.499,193.949 614.832,197.949 595.5,195C 558.7,185.935 542.2,162.435 546,124.5C 552.653,97.0119 569.819,80.6786 597.5,75.5 Z M 600.5,95.5 C 624.928,93.1215 641.095,103.455 649,126.5C 652.537,150.943 642.704,167.11 619.5,175C 598.718,179.685 582.552,173.185 571,155.5C 562.202,135.151 566.035,117.651 582.5,103C 588.149,99.4023 594.149,96.9023 600.5,95.5 Z"/></g>
<g><path style="opacity:0.988" fill="#12b14a" d="M 1134.5,75.5 C 1148.71,75.5927 1153.21,82.2593 1148,95.5C 1146.41,96.376 1144.91,97.376 1143.5,98.5C 1142.5,130.493 1142.17,162.493 1142.5,194.5C 1140.17,194.5 1137.83,194.5 1135.5,194.5C 1135.5,162.5 1135.5,130.5 1135.5,98.5C 1127.33,95.5229 1124.83,89.8562 1128,81.5C 1129.91,79.1435 1132.08,77.1435 1134.5,75.5 Z M 1136.5,82.5 C 1143.82,83.3193 1145.15,86.486 1140.5,92C 1135.67,92.5 1133.5,90.3333 1134,85.5C 1135.04,84.6266 1135.88,83.6266 1136.5,82.5 Z"/></g>
<g><path style="opacity:0.993" fill="#0070bb" d="M 99.5,95.5 C 86.1667,95.5 72.8333,95.5 59.5,95.5C 59.1684,128.338 59.5017,161.004 60.5,193.5C 53.6866,194.491 46.6866,194.825 39.5,194.5C 39.5,161.833 39.5,129.167 39.5,96.5C 26.5,96.5 13.5,96.5 0.5,96.5C 0.5,90.1667 0.5,83.8333 0.5,77.5C 33.5,77.5 66.5,77.5 99.5,77.5C 99.5,83.5 99.5,89.5 99.5,95.5 Z"/></g>
<g><path style="opacity:0.995" fill="#0070bb" d="M 110.5,77.5 C 133.5,77.5 156.5,77.5 179.5,77.5C 179.5,83.5 179.5,89.5 179.5,95.5C 163.5,95.5 147.5,95.5 131.5,95.5C 131.5,105.5 131.5,115.5 131.5,125.5C 146.833,125.5 162.167,125.5 177.5,125.5C 177.5,131.833 177.5,138.167 177.5,144.5C 162.167,144.5 146.833,144.5 131.5,144.5C 131.5,154.833 131.5,165.167 131.5,175.5C 147.833,175.5 164.167,175.5 180.5,175.5C 180.5,181.833 180.5,188.167 180.5,194.5C 157.167,194.5 133.833,194.5 110.5,194.5C 110.5,155.5 110.5,116.5 110.5,77.5 Z"/></g>
<g><path style="opacity:0.997" fill="#0070bb" d="M 391.5,76.5 C 398.167,76.5 404.833,76.5 411.5,76.5C 411.5,115.833 411.5,155.167 411.5,194.5C 404.833,194.5 398.167,194.5 391.5,194.5C 391.5,178.167 391.5,161.833 391.5,145.5C 371.833,145.5 352.167,145.5 332.5,145.5C 332.5,161.833 332.5,178.167 332.5,194.5C 325.5,194.5 318.5,194.5 311.5,194.5C 311.5,155.5 311.5,116.5 311.5,77.5C 318.5,77.5 325.5,77.5 332.5,77.5C 332.5,93.5 332.5,109.5 332.5,125.5C 352.167,125.5 371.833,125.5 391.5,125.5C 391.5,109.167 391.5,92.8333 391.5,76.5 Z"/></g>
<g><path style="opacity:0.993" fill="#0070bb" d="M 424.5,77.5 C 430.176,77.3339 435.843,77.5006 441.5,78C 465.333,105.167 489.167,132.333 513,159.5C 513.5,132.169 513.667,104.835 513.5,77.5C 520.167,77.5 526.833,77.5 533.5,77.5C 533.5,116.5 533.5,155.5 533.5,194.5C 527.463,194.829 521.463,194.496 515.5,193.5C 492.187,166.352 468.687,139.352 445,112.5C 444.5,139.831 444.333,167.165 444.5,194.5C 437.833,194.5 431.167,194.5 424.5,194.5C 424.5,155.5 424.5,116.5 424.5,77.5 Z"/></g>
<g><path style="opacity:0.995" fill="#12b14a" d="M 683.5,76.5 C 697.504,76.3334 711.504,76.5001 725.5,77C 751.113,80.2964 761.946,94.7964 758,120.5C 753.959,133.209 745.459,141.042 732.5,144C 723.212,145.276 713.879,145.776 704.5,145.5C 704.5,161.833 704.5,178.167 704.5,194.5C 697.5,194.5 690.5,194.5 683.5,194.5C 683.5,155.167 683.5,115.833 683.5,76.5 Z M 704.5,95.5 C 713.32,94.9706 721.987,95.8039 730.5,98C 735.442,100.882 737.776,105.215 737.5,111C 737.77,117.798 734.77,122.465 728.5,125C 720.585,126.401 712.585,126.901 704.5,126.5C 704.5,116.167 704.5,105.833 704.5,95.5 Z"/></g>
<g><path style="opacity:0.989" fill="#12b14b" d="M 788.5,76.5 C 793.762,76.1953 798.928,76.5286 804,77.5C 821.734,116.298 838.901,155.298 855.5,194.5C 848.492,194.666 841.492,194.5 834.5,194C 829.693,183.248 824.693,172.581 819.5,162C 804.5,161.333 789.5,161.333 774.5,162C 769.705,172.426 765.038,182.926 760.5,193.5C 753.532,194.497 746.532,194.83 739.5,194.5C 755.827,155.177 772.16,115.844 788.5,76.5 Z M 795.5,109.5 C 800.998,119.835 805.998,130.501 810.5,141.5C 801.184,142.665 791.851,142.832 782.5,142C 787.259,131.319 791.592,120.486 795.5,109.5 Z"/></g>
<g><path style="opacity:0.994" fill="#12b14a" d="M 862.5,77.5 C 877.891,77.0646 893.225,77.5646 908.5,79C 929.016,86.5258 936.516,101.026 931,122.5C 928.284,129.881 923.451,135.381 916.5,139C 921.746,143.575 926.246,148.742 930,154.5C 937.966,168.27 946.799,181.437 956.5,194C 948.167,194.667 939.833,194.667 931.5,194C 923.294,182.424 915.461,170.591 908,158.5C 903.678,153.167 898.512,149.001 892.5,146C 889.518,145.502 886.518,145.335 883.5,145.5C 883.5,161.833 883.5,178.167 883.5,194.5C 876.5,194.5 869.5,194.5 862.5,194.5C 862.5,155.5 862.5,116.5 862.5,77.5 Z M 883.5,95.5 C 890.691,95.0121 897.691,95.8454 904.5,98C 913.776,106.541 913.776,115.208 904.5,124C 897.66,126.078 890.66,126.911 883.5,126.5C 883.5,116.167 883.5,105.833 883.5,95.5 Z"/></g>
<g><path style="opacity:0.994" fill="#12b14a" d="M 962.5,76.5 C 969.167,76.5 975.833,76.5 982.5,76.5C 982.333,92.5035 982.5,108.503 983,124.5C 997.167,109 1011.33,93.5 1025.5,78C 1034.5,77.3333 1043.5,77.3333 1052.5,78C 1035.46,96.0341 1018.8,114.367 1002.5,133C 1023.35,153.013 1044.01,173.179 1064.5,193.5C 1055.18,194.665 1045.85,194.832 1036.5,194C 1018.67,176.833 1000.83,159.667 983,142.5C 982.5,159.83 982.333,177.163 982.5,194.5C 975.5,194.5 968.5,194.5 961.5,194.5C 961.173,155.094 961.506,115.761 962.5,76.5 Z"/></g>
<g><path style="opacity:0.126" fill="#0070b6" d="M 99.5,95.5 C 86.6774,96.4955 73.6774,96.8288 60.5,96.5C 60.5,128.833 60.5,161.167 60.5,193.5C 59.5017,161.004 59.1684,128.338 59.5,95.5C 72.8333,95.5 86.1667,95.5 99.5,95.5 Z"/></g>
<g><path style="opacity:0.963" fill="#12b14a" d="M 1238.5,106.5 C 1252.21,105.366 1257.38,111.366 1254,124.5C 1252.29,126.543 1250.29,128.21 1248,129.5C 1247.5,151.164 1247.33,172.831 1247.5,194.5C 1245.17,194.5 1242.83,194.5 1240.5,194.5C 1240.83,172.823 1240.5,151.156 1239.5,129.5C 1231.7,124.937 1229.87,118.604 1234,110.5C 1235.67,109.267 1237.17,107.933 1238.5,106.5 Z M 1241.5,113.5 C 1248.49,113.331 1250.15,116.164 1246.5,122C 1242.51,123.334 1239.85,122.001 1238.5,118C 1239.39,116.385 1240.39,114.885 1241.5,113.5 Z"/></g>
<g><path style="opacity:0.977" fill="#12b14a" d="M 1082.5,114.5 C 1092.06,112.929 1097.73,116.762 1099.5,126C 1098.69,131.125 1096.02,134.958 1091.5,137.5C 1090.5,156.488 1090.17,175.488 1090.5,194.5C 1088.17,194.5 1085.83,194.5 1083.5,194.5C 1083.67,175.497 1083.5,156.497 1083,137.5C 1075.44,133.552 1073.44,127.552 1077,119.5C 1078.73,117.598 1080.56,115.931 1082.5,114.5 Z M 1084.5,121.5 C 1091.49,121.331 1093.15,124.164 1089.5,130C 1082.42,130.475 1080.75,127.642 1084.5,121.5 Z"/></g>
<g><path style="opacity:0.982" fill="#12b14a" d="M 1151.5,126.5 C 1166.05,125.634 1170.88,131.968 1166,145.5C 1164.62,147.213 1162.96,148.547 1161,149.5C 1160.5,164.496 1160.33,179.496 1160.5,194.5C 1157.83,194.5 1155.17,194.5 1152.5,194.5C 1152.83,179.485 1152.5,164.485 1151.5,149.5C 1142.25,141.826 1142.25,134.159 1151.5,126.5 Z M 1154.5,133.5 C 1160.24,133.716 1162.08,136.383 1160,141.5C 1156.03,144.107 1153.19,143.107 1151.5,138.5C 1151.76,136.308 1152.76,134.641 1154.5,133.5 Z"/></g>
<g><path style="opacity:0.137" fill="#10af48" d="M 1186.5,129.5 C 1188.49,150.808 1189.16,172.474 1188.5,194.5C 1187.82,172.931 1187.16,151.265 1186.5,129.5 Z"/></g>
<g><path style="opacity:0.917" fill="#221e20" d="M 1038.5,279.5 C 1032.5,279.5 1026.5,279.5 1020.5,279.5C 1000.98,272.793 994.481,259.459 1001,239.5C 1007.82,224.004 1019.65,217.837 1036.5,221C 1054.3,227.094 1059.8,238.928 1053,256.5C 1048.48,264.676 1041.65,267.842 1032.5,266C 1030.78,263.119 1028.78,263.119 1026.5,266C 1018.46,268.231 1013.29,265.398 1011,257.5C 1009.07,244.675 1014.24,236.342 1026.5,232.5C 1029.86,233.063 1032.86,234.397 1035.5,236.5C 1036.39,235.675 1036.72,234.675 1036.5,233.5C 1038.5,233.5 1040.5,233.5 1042.5,233.5C 1040.99,242.529 1039.33,251.529 1037.5,260.5C 1046.04,258.814 1050.38,253.481 1050.5,244.5C 1050.17,235.678 1045.84,229.844 1037.5,227C 1017.51,223.167 1006.51,231.334 1004.5,251.5C 1003.95,262.585 1008.95,269.752 1019.5,273C 1031.3,276.72 1041.64,274.387 1050.5,266C 1052.83,265.333 1055.17,265.333 1057.5,266C 1052.82,272.993 1046.48,277.493 1038.5,279.5 Z M 1024.5,238.5 C 1030.86,237.695 1033.86,240.528 1033.5,247C 1033.53,250.923 1032.36,254.423 1030,257.5C 1022.96,263.888 1018.46,262.388 1016.5,253C 1016.99,246.835 1019.66,242.002 1024.5,238.5 Z"/></g>
<g><path style="opacity:0.938" fill="#221e20" d="M 875.5,226.5 C 898.194,225.687 907.361,236.354 903,258.5C 895.962,269.184 886.129,273.018 873.5,270C 859.745,264.102 855.245,253.935 860,239.5C 863.266,232.721 868.433,228.388 875.5,226.5 Z M 881.5,232.5 C 895.974,235.448 900.474,243.781 895,257.5C 886,266.833 877,266.833 868,257.5C 862.589,243.65 867.089,235.316 881.5,232.5 Z"/></g>
<g><path style="opacity:0.937" fill="#221e20" d="M 1142.5,226.5 C 1165.18,225.677 1174.35,236.344 1170,258.5C 1162.96,269.184 1153.13,273.018 1140.5,270C 1126.73,264.058 1122.23,253.891 1127,239.5C 1130.27,232.721 1135.43,228.388 1142.5,226.5 Z M 1148.5,232.5 C 1162.27,235.031 1167.1,243.031 1163,256.5C 1153.97,266.715 1144.64,267.049 1135,257.5C 1129.59,243.65 1134.09,235.316 1148.5,232.5 Z"/></g>
<g><path style="opacity:0.94" fill="#221e20" d="M 685.5,227.5 C 687.833,227.5 690.167,227.5 692.5,227.5C 692.5,233.5 692.5,239.5 692.5,245.5C 700.167,245.5 707.833,245.5 715.5,245.5C 715.5,239.5 715.5,233.5 715.5,227.5C 717.833,227.5 720.167,227.5 722.5,227.5C 722.5,241.833 722.5,256.167 722.5,270.5C 720.167,270.5 717.833,270.5 715.5,270.5C 715.5,264.5 715.5,258.5 715.5,252.5C 707.833,252.5 700.167,252.5 692.5,252.5C 692.5,258.5 692.5,264.5 692.5,270.5C 690.167,270.5 687.833,270.5 685.5,270.5C 685.5,256.167 685.5,241.833 685.5,227.5 Z"/></g>
<g><path style="opacity:0.928" fill="#221e20" d="M 744.5,227.5 C 746.604,227.201 748.604,227.534 750.5,228.5C 756.705,242.408 763.038,256.242 769.5,270C 766.773,270.818 764.106,270.652 761.5,269.5C 760.119,265.854 758.452,262.354 756.5,259C 750.472,258.17 744.472,258.336 738.5,259.5C 737.119,263.146 735.452,266.646 733.5,270C 731.167,270.667 728.833,270.667 726.5,270C 732.917,256 738.917,241.834 744.5,227.5 Z M 746.5,239.5 C 747.376,239.369 748.043,239.702 748.5,240.5C 749.881,244.146 751.548,247.646 753.5,251C 749.848,251.499 746.182,251.665 742.5,251.5C 743.632,247.438 744.965,243.438 746.5,239.5 Z"/></g>
<g><path style="opacity:0.909" fill="#221e20" d="M 772.5,226.5 C 778.565,226.261 784.565,226.761 790.5,228C 797.362,231.636 799.529,237.136 797,244.5C 795.833,247 794,248.833 791.5,250C 796.885,256.384 801.885,263.05 806.5,270C 803.446,270.821 800.446,270.655 797.5,269.5C 793.867,263.734 789.867,258.234 785.5,253C 783.564,252.187 781.564,251.687 779.5,251.5C 779.5,257.833 779.5,264.167 779.5,270.5C 777.167,270.5 774.833,270.5 772.5,270.5C 772.5,255.833 772.5,241.167 772.5,226.5 Z M 779.5,232.5 C 782.516,233.059 785.516,233.725 788.5,234.5C 792.076,242.955 789.076,246.621 779.5,245.5C 779.5,241.167 779.5,236.833 779.5,232.5 Z"/></g>
<g><path style="opacity:0.903" fill="#221e20" d="M 810.5,226.5 C 812.527,226.338 814.527,226.505 816.5,227C 821.333,232.5 826.167,238 831,243.5C 835.859,238.276 840.359,232.776 844.5,227C 846.769,226.242 848.936,226.409 851,227.5C 851.5,241.829 851.667,256.163 851.5,270.5C 849.167,270.5 846.833,270.5 844.5,270.5C 844.667,259.828 844.5,249.161 844,238.5C 839.878,243.786 835.545,248.786 831,253.5C 825.991,249.153 821.658,244.153 818,238.5C 817.5,249.161 817.333,259.828 817.5,270.5C 815.167,270.5 812.833,270.5 810.5,270.5C 810.5,255.833 810.5,241.167 810.5,226.5 Z"/></g>
<g><path style="opacity:0.955" fill="#221f20" d="M 912.5,226.5 C 914.527,226.338 916.527,226.505 918.5,227C 927.785,237.741 936.952,248.574 946,259.5C 946.5,248.505 946.667,237.505 946.5,226.5C 948.5,226.5 950.5,226.5 952.5,226.5C 952.5,241.167 952.5,255.833 952.5,270.5C 950.473,270.662 948.473,270.495 946.5,270C 937.333,259.5 928.167,249 919,238.5C 918.5,249.161 918.333,259.828 918.5,270.5C 916.5,270.5 914.5,270.5 912.5,270.5C 912.5,255.833 912.5,241.167 912.5,226.5 Z"/></g>
<g><path style="opacity:0.924" fill="#221e20" d="M 957.5,226.5 C 960.247,226.187 962.914,226.52 965.5,227.5C 969.192,232.025 972.692,236.692 976,241.5C 979.713,236.576 983.546,231.742 987.5,227C 990.227,226.182 992.894,226.348 995.5,227.5C 990.525,234.31 985.358,240.976 980,247.5C 979.5,255.159 979.334,262.826 979.5,270.5C 977.167,270.5 974.833,270.5 972.5,270.5C 972.666,262.493 972.5,254.493 972,246.5C 967.572,240.649 962.906,234.983 958,229.5C 957.517,228.552 957.351,227.552 957.5,226.5 Z"/></g>
<g><path style="opacity:0.938" fill="#221f20" d="M 1059.5,226.5 C 1061.79,226.244 1063.96,226.577 1066,227.5C 1069.84,236.509 1073.67,245.509 1077.5,254.5C 1081.74,245.367 1085.4,236.034 1088.5,226.5C 1090.92,226.192 1093.26,226.526 1095.5,227.5C 1099.43,236.793 1103.26,246.126 1107,255.5C 1110.67,246.167 1114.33,236.833 1118,227.5C 1120.04,226.577 1122.21,226.244 1124.5,226.5C 1119.37,241.226 1114.04,255.893 1108.5,270.5C 1107.32,270.719 1106.32,270.386 1105.5,269.5C 1101.28,258.718 1096.78,248.051 1092,237.5C 1087.47,248.086 1083.14,258.753 1079,269.5C 1078.28,270.451 1077.45,270.617 1076.5,270C 1070.13,255.762 1064.46,241.262 1059.5,226.5 Z"/></g>
<g><path style="opacity:0.915" fill="#221e20" d="M 1179.5,226.5 C 1185.57,226.261 1191.57,226.761 1197.5,228C 1204.44,231.592 1206.61,237.092 1204,244.5C 1202.83,247 1201,248.833 1198.5,250C 1203.88,256.384 1208.88,263.05 1213.5,270C 1210.45,270.821 1207.45,270.655 1204.5,269.5C 1200.87,263.734 1196.87,258.234 1192.5,253C 1190.56,252.187 1188.56,251.687 1186.5,251.5C 1186.5,257.833 1186.5,264.167 1186.5,270.5C 1184.17,270.5 1181.83,270.5 1179.5,270.5C 1179.5,255.833 1179.5,241.167 1179.5,226.5 Z M 1186.5,232.5 C 1189.52,233.059 1192.52,233.725 1195.5,234.5C 1199.08,242.955 1196.08,246.621 1186.5,245.5C 1186.5,241.167 1186.5,236.833 1186.5,232.5 Z"/></g>
<g><path style="opacity:0.908" fill="#221e20" d="M 1217.5,226.5 C 1219.83,226.5 1222.17,226.5 1224.5,226.5C 1224.33,232.842 1224.5,239.175 1225,245.5C 1230.5,239.333 1236,233.167 1241.5,227C 1244.15,226.503 1246.81,226.336 1249.5,226.5C 1249.65,227.552 1249.48,228.552 1249,229.5C 1242.95,235.05 1237.45,241.05 1232.5,247.5C 1239.53,255.194 1246.86,262.527 1254.5,269.5C 1251.55,270.655 1248.55,270.821 1245.5,270C 1238.36,263.865 1231.53,257.365 1225,250.5C 1224.5,257.158 1224.33,263.825 1224.5,270.5C 1222.17,270.5 1219.83,270.5 1217.5,270.5C 1217.5,255.833 1217.5,241.167 1217.5,226.5 Z"/></g>
</svg>
